<svg width="2848" height="758" viewBox="0 0 2848 758" fill="none" xmlns="http://www.w3.org/2000/svg">
<path d="M981.865 0L0 103.194L68.7804 757.771L1050.65 654.577L981.865 0ZM376.559 545.449L357.62 351.829L270.944 545.449H180.898L145.012 212.322H235.058L251.293 426.258L335.263 212.322H424.644L438.884 426.258L527.601 212.322H621.017L466.652 545.449H376.607H376.559ZM901.693 401.907H671.475V417.477C671.475 464.897 693.832 484.501 732.423 484.501C760.856 484.501 788.624 470.261 798.782 447.286H889.493C856.978 515.687 795.365 554.278 724.306 554.278C630.89 554.278 584.134 506.858 584.134 416.812C584.134 288.175 661.317 203.541 780.461 203.541C864.431 203.541 907.769 248.255 907.769 336.924C907.769 356.576 905.728 378.221 901.693 401.907Z" fill="black"/>
<path d="M765.61 273.268C720.943 273.268 694.504 305.072 681.641 346.368H821.101C822.477 338.916 822.476 332.175 822.476 326.052C822.476 283.379 795.373 273.221 765.61 273.221V273.268Z" fill="black"/>
<path d="M1301.14 545.447L1307.92 504.815C1280.82 538.659 1246.98 554.228 1206.34 554.228C1134.57 554.228 1089.2 502.109 1089.2 414.769C1089.2 296.954 1158.26 203.538 1260.5 203.538C1301.8 203.538 1331.61 220.484 1349.89 255.658L1378.98 90.4707H1465.66L1385.77 545.447H1301.14ZM1334.32 354.533C1334.32 294.296 1314.67 278.727 1275.41 278.727C1207.01 278.727 1179.24 333.552 1179.24 403.282C1179.24 456.778 1202.26 482.505 1238.81 482.505C1287.56 482.505 1334.27 433.091 1334.27 354.533H1334.32Z" fill="black"/>
<path d="M1429.72 545.447L1488.63 212.32H1576.63L1517.72 545.447H1429.72ZM1495.41 172.4L1509.61 90.4707H1597.61L1583.42 172.4H1495.41Z" fill="black"/>
<path d="M1794.18 500.782C1776.57 530.591 1737.31 548.154 1693.98 548.154C1603.93 548.154 1572.79 485.212 1572.79 414.77C1572.79 289.504 1660.8 203.54 1752.88 203.54C1794.84 203.54 1822.61 219.774 1837.52 253.618L1844.97 212.321H1932.98L1873.4 548.819C1855.79 649.023 1773.2 703.183 1680.45 703.183C1597.19 703.183 1540.99 660.51 1540.99 589.451C1540.99 581.334 1542.37 572.505 1543.69 563.724H1625.62C1624.96 568.47 1624.96 572.505 1624.96 576.587C1624.96 612.473 1647.98 627.377 1687.9 627.377C1735.32 627.377 1775.9 599.609 1784.07 555.607L1794.23 500.782H1794.18ZM1820.57 354.534C1820.57 302.415 1800.26 280.058 1760.34 280.058C1696.02 280.058 1664.88 330.848 1664.88 402.619C1664.88 458.82 1688.56 479.136 1725.11 479.136C1774.53 479.136 1820.57 433.758 1820.57 354.582V354.534Z" fill="black"/>
<path d="M1918.24 545.447L1977.15 212.32H2065.15L2006.25 545.447H1918.24ZM1983.94 172.4L1998.13 90.4707H2086.14L2071.94 172.4H1983.94Z" fill="black"/>
<path d="M2337.83 420.846C2324.97 491.241 2274.17 554.23 2180.09 554.23C2097.5 554.23 2064.98 509.516 2064.98 451.985C2064.98 441.827 2065.65 431.004 2067.69 420.182L2119.81 122.275H2206.49L2190.92 212.321H2375.09L2364.27 274.599H2180.09L2155.74 411.353C2153.7 421.511 2153.04 430.292 2153.04 437.745C2153.04 466.842 2166.57 477.712 2195 477.712C2228.84 477.712 2250.54 454.026 2257.99 412.729L2272.89 326.053H2354.82L2337.88 420.846H2337.83Z" fill="black"/>
<path d="M2557.27 545.449C2556.6 541.367 2555.94 536.62 2555.94 531.256C2555.94 526.509 2556.6 521.098 2557.27 515.686C2532.2 538.708 2494.33 554.278 2449.61 554.278C2383.25 554.278 2352.78 523.803 2352.78 478.424C2352.78 379.597 2422.51 357.905 2528.79 343.712C2589.07 335.595 2591.78 324.06 2591.78 305.785C2591.78 277.352 2572.84 271.276 2540.99 271.276C2501.02 271.276 2481.41 290.928 2472.59 320.69H2390.66C2404.18 251.625 2450.23 203.54 2557.22 203.54C2645.94 203.54 2679.78 236.72 2679.78 296.956C2679.78 309.155 2678.45 321.354 2676.41 334.883L2639.15 545.449H2557.22H2557.27ZM2579.62 382.255C2569.47 391.084 2553.23 395.783 2519.34 401.907C2456.4 413.441 2443.53 430.34 2443.53 461.479C2443.53 482.459 2459.77 491.288 2482.79 491.288C2525.46 491.288 2565.38 458.108 2572.84 418.853L2579.62 382.303V382.255Z" fill="black"/>
<path d="M2680.1 545.447L2759.99 90.4707H2847.99L2768.1 545.447H2680.1Z" fill="black"/>
</svg>
